# xmcd
#
# Track frame offsets:
#	150
#	21357
#	37547
#	49967
#	60442
#	70625
#	83862
#	100477
#	120945
#	133045
#	147245
#	186450
#	195087
#	203080
#	221955
#	236785
#	251780
#	263570
#	278370
#	289207
#	306915
#	317882
#	334852
#
# Disc length: 4709 seconds
#
# Revision: 0
# Processed by: cddbd v1.5.1PL0 Copyright (c) Steve Scherf et al.
# Submitted via: dBpowerAMP V4.0
#
DISCID=56126317
DTITLE=Mouloudji - Un jour tu verras
DYEAR=2004
DGENRE=Chanson française
TTITLE0=Les feuilles mortes
TTITLE1=Six feuilles mortes de San Francisco
TTITLE2=Auto portrait
TTITLE3=Comme le dit ma concierge
TTITLE4=les Beatles de 40
TTITLE5=Tout fout l'camp
TTITLE6=L'adagio du pont Caulaincourt
TTITLE7=Madame la môme
TTITLE8=Un jour je m'en irai
TTITLE9=Une bonne paire de claques
TTITLE10=Le jour des morts
TTITLE11=Les bruits de la nuit
TTITLE12=Les enfants qui s'aiment
TTITLE13=La pêche à la baleine
TTITLE14=L'orgue de Barbarie
TTITLE15=Adrienne
TTITLE16=Deux escargots s'en vont à l'enterrement
TTITLE17=La grasse mâtinée
TTITLE18=En sortant de l'école
TTITLE19=Toi tu dors la nuit
TTITLE20=La chasse à l'enfant
TTITLE21=Barbara
TTITLE22=Faut vivre
EXTD=
EXTT0=
EXTT1=
EXTT2=
EXTT3=
EXTT4=
EXTT5=
EXTT6=
EXTT7=
EXTT8=
EXTT9=
EXTT10=
EXTT11=
EXTT12=
EXTT13=
EXTT14=
EXTT15=
EXTT16=
EXTT17=
EXTT18=
EXTT19=
EXTT20=
EXTT21=
EXTT22=
PLAYORDER=
